<svg id="Layer_1" data-name="Layer 1" xmlns="http://www.w3.org/2000/svg" viewBox="0 0 101 410.67"><defs><style>.cls-1{fill:#fff;}.cls-2{fill:#e51b24;}</style></defs><title>Slide-34-Thermometer</title><path class="cls-1" d="M68.17,314.46V19.17a17.67,17.67,0,0,0-35.33,0v295.3A49,49,0,1,0,68.17,314.46Z"/><path d="M50.5,410.67a50.5,50.5,0,0,1-19.17-97.22V19.17a19.17,19.17,0,1,1,38.33,0V313.45A50.5,50.5,0,0,1,50.5,410.67ZM50.5,3A16.19,16.19,0,0,0,34.33,19.17V315.49l-1,.37A47.5,47.5,0,1,0,98,360.17a47.8,47.8,0,0,0-30.37-44.3l-1-.37V19.17A16.19,16.19,0,0,0,50.5,3Z"/><path class="cls-2" d="M58.33,325.06V89.15h-16v235.9A35.17,35.17,0,1,0,58.33,325.06Z"/><path d="M50.32,396a36.67,36.67,0,0,1-9.52-72.08V87.65h19V323.89A36.67,36.67,0,0,1,50.32,396ZM43.8,90.65V326.25l-1.16.27a33.67,33.67,0,1,0,15.35,0l-1.16-.27V90.65h-13Z"/><path class="cls-2" d="M77,359.51a26.92,26.92,0,0,1-7.91,19.1"/><path d="M69.09,380.1A1.5,1.5,0,0,1,68,377.54a25.34,25.34,0,0,0,7.47-18,1.5,1.5,0,0,1,3,0,28.32,28.32,0,0,1-8.35,20.16A1.5,1.5,0,0,1,69.09,380.1Z"/><path d="M68.17,41.5H52.32a1.5,1.5,0,0,1,0-3H68.17A1.5,1.5,0,0,1,68.17,41.5Z"/><path d="M68.17,78.5H52.32a1.5,1.5,0,0,1,0-3H68.17A1.5,1.5,0,0,1,68.17,78.5Z"/><path d="M68.17,115.5H52.32a1.5,1.5,0,0,1,0-3H68.17A1.5,1.5,0,0,1,68.17,115.5Z"/><path d="M68.17,152.5H52.32a1.5,1.5,0,0,1,0-3H68.17A1.5,1.5,0,0,1,68.17,152.5Z"/><path d="M68.17,189.5H52.32a1.5,1.5,0,0,1,0-3H68.17A1.5,1.5,0,0,1,68.17,189.5Z"/></svg>