<svg id="Layer_1" data-name="Layer 1" xmlns="http://www.w3.org/2000/svg" viewBox="0 0 469.73 495.53"><defs><style>.cls-1{fill:#f6f6f6;}.cls-2{fill:#231f20;}.cls-3{fill:#85e8da;}.cls-4{fill:#e51b24;}.cls-5{fill:#1ecac7;}</style></defs><title>Slide-27-Flow-Chart</title><rect class="cls-1" x="225.53" y="47.73" width="116.16" height="116.16" transform="translate(558.97 -19.91) rotate(135)"/><path class="cls-2" d="M283.61,190.07l-84.26-84.26,84.26-84.26,84.26,84.26Zm-80-84.26,80,80,80-80-80-80Z"/><path class="cls-2" d="M191,106H118.73V10.25a1.5,1.5,0,0,1,3,0V103H191A1.5,1.5,0,0,1,191,106Z"/><polygon class="cls-2" points="188.77 97 201.72 104.48 188.77 111.96 188.77 97"/><rect class="cls-2" x="282.11" y="188.14" width="3" height="29.87"/><polygon class="cls-2" points="276.13 215.82 283.61 228.77 291.09 215.82 276.13 215.82"/><rect class="cls-2" x="282.11" y="277.53" width="3" height="6"/><path class="cls-2" d="M285.11,396h-3V384.74h3V396Zm0-22.49h-3V362.25h3v11.25Zm0-22.49h-3V339.76h3V351Zm0-22.49h-3V317.26h3v11.25Zm0-22.49h-3V294.77h3V306Z"/><path class="cls-2" d="M283.61,414.73h-6v-3h4.5v-4.5h3v6A1.5,1.5,0,0,1,283.61,414.73Z"/><path class="cls-2" d="M266,414.73H254.32v-3H266v3Zm-23.29,0H231v-3h11.65v3Zm-23.29,0H207.74v-3h11.64v3Zm-23.29,0H184.45v-3H196.1v3Zm-23.29,0H161.16v-3h11.65v3Zm-23.29,0H137.87v-3h11.64v3Z"/><path class="cls-2" d="M126.23,414.73h-6a1.5,1.5,0,0,1-1.5-1.5v-6h3v4.5h4.5v3Z"/><path class="cls-2" d="M121.73,394.74h-3V382.25h3v12.49Zm0-25h-3V357.26h3v12.49Zm0-25h-3V332.28h3v12.49Zm0-25h-3V307.29h3v12.49Zm0-25h-3V282.31h3V294.8Zm0-25h-3V257.32h3v12.49Zm0-25h-3V232.34h3v12.49Zm0-25h-3V207.35h3v12.49Zm0-25h-3V182.37h3v12.49Zm0-25h-3V157.38h3v12.49Z"/><path class="cls-2" d="M121.73,144.89h-3v-6a1.5,1.5,0,0,1,1.5-1.5h6v3h-4.5v4.5Z"/><path class="cls-2" d="M198.43,140.39h-12v-3h12v3Zm-24.07,0h-12v-3h12v3Zm-24.07,0h-12v-3h12v3Z"/><rect class="cls-2" x="210.46" y="137.39" width="6" height="3"/><polygon class="cls-2" points="214.28 146.37 227.23 138.89 214.28 131.41 214.28 146.37"/><rect class="cls-3" x="225.74" y="332.56" width="115.75" height="52.21" rx="1" ry="1" transform="translate(567.22 717.33) rotate(-180)"/><path d="M340.49,386.27H226.74a2.5,2.5,0,0,1-2.5-2.5V333.56a2.5,2.5,0,0,1,2.5-2.5H340.49a2.5,2.5,0,0,1,2.5,2.5v50.21A2.5,2.5,0,0,1,340.49,386.27Zm-113.25-3H340V334.06H227.24v49.21Z"/><path d="M253.19,347.42a2.13,2.13,0,1,1-2.13,2.16A2.13,2.13,0,0,1,253.19,347.42Zm-1.72,19.14V353.76h3.46v12.79h-3.46Z"/><path d="M269.39,357.48v-5.07h2.91v5.07h4.94v2.83H272.3v5.1h-2.91v-5.1h-4.91v-2.83h4.91Z"/><path d="M280.05,357.69V354.9h12.61v2.78H280.05Zm0,5.17v-2.81h12.61v2.81H280.05Z"/><path d="M305.48,366.55V355.27h-4.06v-2.42c2.47,0,4.19-1.4,4.52-3.17H309v16.88h-3.56Z"/><path d="M315.13,353.58a2.33,2.33,0,1,1,0,4.65A2.33,2.33,0,0,1,315.13,353.58Zm-0.05,8.94c1.53,0,2.44,1.25,2.44,2.83a5.07,5.07,0,0,1-4.34,5.41v-1.59a3,3,0,0,0,2.34-2.68,1.14,1.14,0,0,1-.62.16,2,2,0,0,1-2.05-2.05A2.11,2.11,0,0,1,315.07,362.52Z"/><rect class="cls-3" x="52.77" y="31.26" width="135.69" height="52.21" rx="1" ry="1" transform="translate(241.22 114.73) rotate(-180)"/><path d="M187.45,85H53.77a2.5,2.5,0,0,1-2.5-2.5V32.26a2.5,2.5,0,0,1,2.5-2.5H187.45a2.5,2.5,0,0,1,2.5,2.5V82.47A2.5,2.5,0,0,1,187.45,85ZM54.27,82H187V32.76H54.27V82Z"/><path d="M79,65.25H75.53L70.3,52.46h3.8L77.27,61l3-8.58H84Z"/><path d="M89.05,57.9l3.15-.47a0.91,0.91,0,0,0,1-.91c0-.91-0.7-1.66-2.16-1.66a2.27,2.27,0,0,0-2.44,2.08l-3.07-.65c0.21-2,2.05-4.21,5.49-4.21,4.06,0,5.56,2.29,5.56,4.86v6.29a14.39,14.39,0,0,0,.16,2H93.52a8.65,8.65,0,0,1-.13-1.53,4.28,4.28,0,0,1-3.77,1.9c-2.73,0-4.39-1.85-4.39-3.85C85.23,59.48,86.92,58.21,89.05,57.9Zm4.11,2.18V59.51L90.27,60a1.61,1.61,0,0,0-1.59,1.61A1.5,1.5,0,0,0,90.35,63C91.81,63,93.16,62.34,93.16,60.08Z"/><path d="M107.82,55.89a5.2,5.2,0,0,0-1-.1c-1.77,0-3.3.86-3.3,3.61v5.85H100V52.46h3.35v1.9a3.8,3.8,0,0,1,3.64-2,8.06,8.06,0,0,1,.81.05v3.48Z"/><path d="M118.33,46.12a2.13,2.13,0,1,1-2.13,2.16A2.13,2.13,0,0,1,118.33,46.12Zm-1.72,19.14V52.46h3.46V65.25h-3.46Z"/><path d="M129.87,56.39V53.61h12.61v2.78H129.87Zm0,5.17V58.75h12.61v2.81H129.87Z"/><path d="M153,50.82A6.38,6.38,0,0,1,158.55,48a6.3,6.3,0,0,1,5.54,2.83,10.78,10.78,0,0,1,1.51,6,10.78,10.78,0,0,1-1.51,6,6.3,6.3,0,0,1-5.54,2.83A6.38,6.38,0,0,1,153,62.84a10.77,10.77,0,0,1-1.48-6A10.77,10.77,0,0,1,153,50.82Zm3,10.3a2.82,2.82,0,0,0,2.55,1.38,2.75,2.75,0,0,0,2.52-1.38,7.91,7.91,0,0,0,.94-4.29,7.91,7.91,0,0,0-.94-4.29,2.75,2.75,0,0,0-2.52-1.38A2.82,2.82,0,0,0,156,52.54a8.16,8.16,0,0,0-.91,4.29A8.16,8.16,0,0,0,156,61.12Z"/><path d="M170.71,52.28a2.33,2.33,0,1,1,0,4.65A2.33,2.33,0,0,1,170.71,52.28Zm-0.05,8.94c1.53,0,2.44,1.25,2.44,2.83a5.07,5.07,0,0,1-4.34,5.41V67.88a3,3,0,0,0,2.34-2.68,1.14,1.14,0,0,1-.62.16,2,2,0,0,1-2.05-2.05A2.11,2.11,0,0,1,170.66,61.22Z"/><path d="M257.31,91.07a2.13,2.13,0,1,1-2.13,2.16A2.13,2.13,0,0,1,257.31,91.07Zm-1.72,19.14V97.42h3.46v12.79H255.6Z"/><path d="M268.23,101.24l11.18-5.64v3.2l-7.7,3.72,7.7,3.72v3.25l-11.18-5.62v-2.63Z"/><path d="M291.53,110.21V98.92h-4.06V96.51c2.47,0,4.19-1.4,4.52-3.17h3.09v16.87h-3.56Z"/><path d="M299.8,95.78a6.38,6.38,0,0,1,5.56-2.83,6.3,6.3,0,0,1,5.54,2.83,12.72,12.72,0,0,1,0,12,6.3,6.3,0,0,1-5.54,2.83,6.38,6.38,0,0,1-5.56-2.83,10.77,10.77,0,0,1-1.48-6A10.77,10.77,0,0,1,299.8,95.78Zm3,10.3a2.82,2.82,0,0,0,2.55,1.38,2.74,2.74,0,0,0,2.52-1.38,7.9,7.9,0,0,0,.94-4.29,7.9,7.9,0,0,0-.94-4.29,2.74,2.74,0,0,0-2.52-1.38,2.82,2.82,0,0,0-2.55,1.38,8.15,8.15,0,0,0-.91,4.29A8.15,8.15,0,0,0,302.81,106.07Z"/><path d="M362.22,80.21l-5.8-9.06v9.06h-2.48V67.44H357l5.31,8.44V67.44h2.48V80.21h-2.61Z"/><path d="M376.13,75.78a4.65,4.65,0,1,1-4.65-4.7A4.55,4.55,0,0,1,376.13,75.78Zm-2.39,0a2.26,2.26,0,1,0-2.25,2.52A2.27,2.27,0,0,0,373.74,75.78Z"/><path class="cls-4" d="M0,106.21V93.44H2.52v12.77H0Z"/><path class="cls-4" d="M7.65,106.21H5.26V97.35H7.58v1.1a2.94,2.94,0,0,1,2.56-1.33c2.2,0,3.21,1.57,3.21,3.51v5.58H10.95V101a1.56,1.56,0,0,0-1.64-1.76,1.67,1.67,0,0,0-1.66,1.84v5.1Z"/><path class="cls-4" d="M17,93a1.48,1.48,0,1,1-1.48,1.49A1.48,1.48,0,0,1,17,93Zm-1.19,13.25V97.35h2.39v8.86H15.77Z"/><path class="cls-4" d="M23.67,97.35h1.78v2.13H23.67v3.71a0.89,0.89,0,0,0,1,1,3.46,3.46,0,0,0,.74-0.07v2a3.55,3.55,0,0,1-1.35.22,2.56,2.56,0,0,1-2.81-2.74V99.48h-1.6V97.35h0.45a1.28,1.28,0,0,0,1.37-1.4V94.7h2.16v2.65Z"/><path class="cls-4" d="M28.67,93a1.48,1.48,0,1,1-1.48,1.49A1.48,1.48,0,0,1,28.67,93Zm-1.19,13.25V97.35h2.4v8.86h-2.4Z"/><path class="cls-4" d="M34.54,101.11l2.18-.32a0.63,0.63,0,0,0,.67-0.63A1.25,1.25,0,0,0,35.89,99a1.57,1.57,0,0,0-1.69,1.44L32.07,100a3.52,3.52,0,0,1,3.8-2.92c2.81,0,3.85,1.58,3.85,3.37v4.36a9.88,9.88,0,0,0,.11,1.4h-2.2a6,6,0,0,1-.09-1.06,3,3,0,0,1-2.61,1.31,2.8,2.8,0,0,1-3-2.66A2.73,2.73,0,0,1,34.54,101.11Zm2.85,1.51v-0.4l-2,.31a1.12,1.12,0,0,0-1.1,1.12,1,1,0,0,0,1.15,1A1.8,1.8,0,0,0,37.39,102.63Z"/><path class="cls-4" d="M42.14,106.21v-13h2.4v13h-2.4Z"/><path class="cls-4" d="M48.27,93a1.48,1.48,0,1,1-1.48,1.49A1.48,1.48,0,0,1,48.27,93Zm-1.19,13.25V97.35h2.39v8.86H47.09Z"/><path class="cls-4" d="M51.42,106.21V104.1l4.2-4.68H51.53V97.35h7.15v2l-4.32,4.77h4.39v2.09H51.42Z"/><path class="cls-4" d="M62.91,101.11l2.18-.32a0.63,0.63,0,0,0,.67-0.63A1.25,1.25,0,0,0,64.26,99a1.57,1.57,0,0,0-1.69,1.44L60.44,100a3.52,3.52,0,0,1,3.8-2.92c2.81,0,3.85,1.58,3.85,3.37v4.36a9.89,9.89,0,0,0,.11,1.4H66a6,6,0,0,1-.09-1.06,3,3,0,0,1-2.61,1.31,2.8,2.8,0,0,1-3-2.66A2.73,2.73,0,0,1,62.91,101.11Zm2.84,1.51v-0.4l-2,.31a1.12,1.12,0,0,0-1.1,1.12,1,1,0,0,0,1.15,1A1.8,1.8,0,0,0,65.75,102.63Z"/><path class="cls-4" d="M73.4,97.35h1.78v2.13H73.4v3.71a0.89,0.89,0,0,0,1,1,3.46,3.46,0,0,0,.74-0.07v2a3.55,3.55,0,0,1-1.35.22A2.56,2.56,0,0,1,71,103.6V99.48h-1.6V97.35h0.45a1.28,1.28,0,0,0,1.37-1.4V94.7H73.4v2.65Z"/><path class="cls-4" d="M78.41,93a1.48,1.48,0,1,1-1.48,1.49A1.48,1.48,0,0,1,78.41,93Zm-1.19,13.25V97.35h2.39v8.86H77.22Z"/><path class="cls-4" d="M90.79,101.78a4.65,4.65,0,1,1-4.65-4.7A4.55,4.55,0,0,1,90.79,101.78Zm-2.4,0a2.26,2.26,0,1,0-2.25,2.52A2.27,2.27,0,0,0,88.4,101.78Z"/><path class="cls-4" d="M95.07,106.21H92.68V97.35H95v1.1a2.94,2.94,0,0,1,2.56-1.33c2.2,0,3.21,1.57,3.21,3.51v5.58h-2.4V101a1.56,1.56,0,0,0-1.64-1.76,1.67,1.67,0,0,0-1.66,1.84v5.1Z"/><path class="cls-4" d="M243.72,6.88a6.44,6.44,0,0,1,6.5-6.66,5.62,5.62,0,0,1,5.85,4.23l-2.34.74a3.34,3.34,0,0,0-3.51-2.57,3.93,3.93,0,0,0-3.93,4.27,3.94,3.94,0,0,0,4,4.21,3.55,3.55,0,0,0,3.58-2.61l2.32,0.7a5.81,5.81,0,0,1-5.91,4.34A6.37,6.37,0,0,1,243.72,6.88Z"/><path class="cls-4" d="M266.36,8.82a4.65,4.65,0,1,1-9.29,0A4.65,4.65,0,1,1,266.36,8.82Zm-2.39,0a2.27,2.27,0,1,0-4.5,0A2.27,2.27,0,1,0,264,8.82Z"/><path class="cls-4" d="M270.64,13.25h-2.39V4.39h2.32v1.1a2.94,2.94,0,0,1,2.56-1.33c2.2,0,3.21,1.57,3.21,3.51v5.58h-2.39V8.08a1.56,1.56,0,0,0-1.64-1.76,1.67,1.67,0,0,0-1.66,1.84v5.1Z"/><path class="cls-4" d="M287.21,11.65c0,0.59,0,1.24.07,1.6H285a6.11,6.11,0,0,1-.09-1,2.78,2.78,0,0,1-2.48,1.24A4.36,4.36,0,0,1,278.1,8.8a4.33,4.33,0,0,1,4.25-4.63,2.65,2.65,0,0,1,2.5,1.1V0.22h2.36V11.65Zm-4.5-.32a2.25,2.25,0,0,0,2.18-2.54,2.2,2.2,0,0,0-2.18-2.47,2.22,2.22,0,0,0-2.2,2.48A2.24,2.24,0,0,0,282.71,11.33Z"/><path class="cls-4" d="M291,0a1.48,1.48,0,1,1-1.48,1.49A1.48,1.48,0,0,1,291,0ZM289.8,13.25V4.39h2.39v8.86H289.8Z"/><path class="cls-4" d="M297.7,4.39h1.78V6.52H297.7v3.71a0.89,0.89,0,0,0,1,1,3.46,3.46,0,0,0,.74-0.07v2a3.56,3.56,0,0,1-1.35.22,2.56,2.56,0,0,1-2.81-2.74V6.52h-1.6V4.39h0.45A1.28,1.28,0,0,0,295.54,3V1.75h2.16V4.39Z"/><path class="cls-4" d="M302.7,0a1.48,1.48,0,1,1-1.48,1.49A1.48,1.48,0,0,1,302.7,0Zm-1.19,13.25V4.39h2.39v8.86h-2.39Z"/><path class="cls-4" d="M315.09,8.82a4.65,4.65,0,1,1-9.29,0A4.65,4.65,0,1,1,315.09,8.82Zm-2.39,0a2.27,2.27,0,1,0-4.5,0A2.26,2.26,0,1,0,312.69,8.82Z"/><path class="cls-4" d="M319.37,13.25H317V4.39h2.32v1.1a2.94,2.94,0,0,1,2.56-1.33c2.2,0,3.2,1.57,3.2,3.51v5.58h-2.39V8.08A1.56,1.56,0,0,0,321,6.32a1.67,1.67,0,0,0-1.66,1.84v5.1Z"/><path d="M229.66,174.44h2.92l2.86,5.06,2.86-5.06h2.79l-4.5,7.4v5.37h-2.48v-5.37Z"/><path d="M248.71,184.67a4,4,0,0,1-4,2.81,4.71,4.71,0,0,1-.22-9.4c2.74,0,4.38,1.75,4.38,4.59,0,0.34,0,.7,0,0.74h-6.34a2.16,2.16,0,0,0,2.23,2,2,2,0,0,0,2-1.35Zm-2.23-2.9a1.78,1.78,0,0,0-2-1.75,1.92,1.92,0,0,0-2,1.75h4Z"/><path d="M252,184.29a1.47,1.47,0,0,0,1.62,1.35,1,1,0,0,0,1.17-.88,1,1,0,0,0-1-.86l-1.17-.27c-1.71-.38-2.48-1.4-2.48-2.65a3.09,3.09,0,0,1,3.31-2.9c2.52,0,3.37,1.6,3.48,2.56l-2,.45a1.35,1.35,0,0,0-1.46-1.19,1,1,0,0,0-1.13.88,0.84,0.84,0,0,0,.81.79l1.26,0.27c1.75,0.36,2.63,1.42,2.63,2.72s-1.12,2.92-3.44,2.92c-2.67,0-3.58-1.73-3.69-2.74Z"/><path class="cls-4" d="M299.45,413.23V400.47h8.07v2.36h-5.58V406h5v2.29h-5v5h-2.5Z"/><path class="cls-4" d="M310.54,400a1.48,1.48,0,1,1-1.48,1.49A1.48,1.48,0,0,1,310.54,400Zm-1.19,13.25v-8.86h2.4v8.86h-2.4Z"/><path class="cls-4" d="M316.7,413.23H314.3v-8.86h2.32v1.1a2.94,2.94,0,0,1,2.56-1.33c2.2,0,3.21,1.57,3.21,3.51v5.58H320v-5.17a1.56,1.56,0,0,0-1.64-1.76,1.67,1.67,0,0,0-1.66,1.84v5.1Z"/><path class="cls-4" d="M326.92,408.14l2.18-.32a0.63,0.63,0,0,0,.67-0.63,1.25,1.25,0,0,0-1.49-1.15,1.57,1.57,0,0,0-1.69,1.44l-2.12-.45a3.52,3.52,0,0,1,3.8-2.92c2.81,0,3.85,1.58,3.85,3.37v4.36a9.82,9.82,0,0,0,.11,1.4H330a6,6,0,0,1-.09-1.06,3,3,0,0,1-2.61,1.31,2.8,2.8,0,0,1-3-2.67A2.73,2.73,0,0,1,326.92,408.14Zm2.84,1.51v-0.4l-2,.31a1.12,1.12,0,0,0-1.1,1.12,1,1,0,0,0,1.15,1A1.8,1.8,0,0,0,329.77,409.65Z"/><path class="cls-4" d="M334.52,413.23v-13h2.39v13h-2.39Z"/><path class="cls-4" d="M344.09,413.23V400.47h8v2.34h-5.51v2.92h5v2.21h-5v3h5.51v2.34h-8Z"/><path class="cls-4" d="M356.48,408.78l-3.15-4.41h2.85c0.31,0.49,1.46,2.14,1.76,2.63l1.75-2.63h2.72l-3.1,4.34,3.21,4.52H359.7l-1.85-2.72c-0.32.49-1.51,2.23-1.82,2.72h-2.7Z"/><path class="cls-4" d="M364,416.65V404.37h2.32v1.08a3.1,3.1,0,0,1,2.72-1.28c2.59,0,4.09,2,4.09,4.61s-1.67,4.66-4.18,4.66a3.11,3.11,0,0,1-2.56-1.08v4.29H364Zm4.57-10.33a2.51,2.51,0,1,0,2.2,2.48A2.25,2.25,0,0,0,368.54,406.32Z"/><path class="cls-4" d="M380.38,406.75a3.63,3.63,0,0,0-.72-0.07c-1.22,0-2.29.59-2.29,2.5v4.05H375v-8.86h2.32v1.31a2.63,2.63,0,0,1,2.52-1.39,5.3,5.3,0,0,1,.56,0v2.41Z"/><path class="cls-4" d="M389.92,410.69a4,4,0,0,1-4,2.81,4.71,4.71,0,0,1-.22-9.4c2.74,0,4.38,1.75,4.38,4.59,0,0.34,0,.7,0,0.74h-6.34a2.16,2.16,0,0,0,2.23,2,2,2,0,0,0,2-1.35Zm-2.23-2.9a1.78,1.78,0,0,0-2-1.75,1.92,1.92,0,0,0-2,1.75h4Z"/><path class="cls-4" d="M393.23,410.31a1.47,1.47,0,0,0,1.62,1.35,1,1,0,0,0,1.17-.88,1,1,0,0,0-1-.86l-1.17-.27c-1.71-.38-2.48-1.4-2.48-2.65a3.09,3.09,0,0,1,3.31-2.9c2.52,0,3.37,1.6,3.48,2.56l-2,.45a1.35,1.35,0,0,0-1.46-1.19,1,1,0,0,0-1.13.88,0.84,0.84,0,0,0,.81.79l1.26,0.27c1.75,0.36,2.63,1.42,2.63,2.72s-1.12,2.92-3.44,2.92c-2.67,0-3.58-1.73-3.69-2.74Z"/><path class="cls-4" d="M401.53,410.31a1.47,1.47,0,0,0,1.62,1.35,1,1,0,0,0,1.17-.88,1,1,0,0,0-1-.86l-1.17-.27c-1.71-.38-2.49-1.4-2.49-2.65a3.09,3.09,0,0,1,3.31-2.9c2.52,0,3.37,1.6,3.47,2.56l-2,.45a1.35,1.35,0,0,0-1.46-1.19,1,1,0,0,0-1.13.88,0.84,0.84,0,0,0,.81.79l1.26,0.27c1.75,0.36,2.63,1.42,2.63,2.72s-1.12,2.92-3.44,2.92c-2.66,0-3.58-1.73-3.69-2.74Z"/><path class="cls-4" d="M409.72,400a1.48,1.48,0,1,1-1.48,1.49A1.48,1.48,0,0,1,409.72,400Zm-1.19,13.25v-8.86h2.39v8.86h-2.39Z"/><path class="cls-4" d="M422.11,408.8a4.65,4.65,0,1,1-4.65-4.7A4.55,4.55,0,0,1,422.11,408.8Zm-2.4,0a2.26,2.26,0,1,0-2.25,2.52A2.27,2.27,0,0,0,419.71,408.8Z"/><path class="cls-4" d="M426.39,413.23H424v-8.86h2.32v1.1a2.94,2.94,0,0,1,2.56-1.33c2.2,0,3.2,1.57,3.2,3.51v5.58h-2.39v-5.17A1.56,1.56,0,0,0,428,406.3a1.67,1.67,0,0,0-1.66,1.84v5.1Z"/><path class="cls-2" d="M156.7,484.76h-3V444.7a1.5,1.5,0,0,1,1.5-1.5H466.73V106H364.93v-3h103.3a1.5,1.5,0,0,1,1.5,1.5V444.7a1.5,1.5,0,0,1-1.5,1.5H156.7v38.56Z"/><polygon class="cls-2" points="147.72 482.58 155.2 495.53 162.68 482.58 147.72 482.58"/><rect class="cls-5" x="180.68" y="230.55" width="205.87" height="82.24" rx="1" ry="1" transform="translate(567.22 543.33) rotate(-180)"/><path d="M385.54,314.28H181.68a2.5,2.5,0,0,1-2.5-2.5V231.54a2.5,2.5,0,0,1,2.5-2.5H385.54a2.5,2.5,0,0,1,2.5,2.5v80.24A2.5,2.5,0,0,1,385.54,314.28Zm-203.36-3H385V232H182.18v79.24Z"/><path d="M253.67,260.34a2.13,2.13,0,0,0,2.34,2c1.14,0,1.69-.6,1.69-1.27s-0.39-1-1.38-1.25l-1.69-.39c-2.47-.55-3.59-2-3.59-3.82,0-2.29,2-4.19,4.78-4.19,3.64,0,4.86,2.31,5,3.69l-2.89.65a2,2,0,0,0-2.11-1.72,1.47,1.47,0,0,0-1.64,1.27,1.21,1.21,0,0,0,1.17,1.14l1.82,0.39c2.52,0.52,3.8,2.05,3.8,3.93,0,2.08-1.61,4.21-5,4.21-3.85,0-5.17-2.5-5.33-4Z"/><path d="M276.19,258.16a6.71,6.71,0,1,1-6.71-6.79A6.57,6.57,0,0,1,276.19,258.16Zm-3.46,0c0-2.42-1.56-3.64-3.25-3.64s-3.25,1.22-3.25,3.64,1.56,3.64,3.25,3.64S272.73,260.57,272.73,258.16Z"/><path d="M278.92,264.55V251.76h3.3v1.56A4.4,4.4,0,0,1,286,251.4a4,4,0,0,1,3.8,2.13,4.44,4.44,0,0,1,4.06-2.13c2.37,0,4.63,1.43,4.63,4.86v8.29h-3.35V257a2.13,2.13,0,0,0-2.26-2.42,2.35,2.35,0,0,0-2.37,2.52v7.49H287V257a2.15,2.15,0,0,0-2.26-2.42,2.34,2.34,0,0,0-2.39,2.52v7.49h-3.46Z"/><path d="M313.42,260.89a5.76,5.76,0,0,1-5.82,4.06,6.8,6.8,0,0,1-.31-13.57c4,0,6.32,2.52,6.32,6.63,0,0.49-.05,1-0.05,1.07H304.4a3.12,3.12,0,0,0,3.22,2.91,2.82,2.82,0,0,0,2.91-2Zm-3.22-4.19a2.57,2.57,0,0,0-2.86-2.52,2.77,2.77,0,0,0-2.86,2.52h5.72Z"/><path d="M259.94,284.16a3.29,3.29,0,0,0,3.28,3.61,2.93,2.93,0,0,0,2.94-2.16l3,1a5.94,5.94,0,0,1-6,4.32,6.62,6.62,0,0,1-6.73-6.79,6.55,6.55,0,0,1,6.63-6.79,5.86,5.86,0,0,1,6,4.32l-3.09,1a2.79,2.79,0,0,0-2.83-2.16A3.25,3.25,0,0,0,259.94,284.16Z"/><path d="M284.07,284.16a6.71,6.71,0,1,1-6.71-6.79A6.57,6.57,0,0,1,284.07,284.16Zm-3.46,0c0-2.42-1.56-3.64-3.25-3.64s-3.25,1.22-3.25,3.64,1.56,3.64,3.25,3.64S280.61,286.57,280.61,284.16Z"/><path d="M299,288.24c0,0.86.05,1.79,0.1,2.31h-3.3a9,9,0,0,1-.13-1.48,4,4,0,0,1-3.59,1.79c-3.64,0-6.24-2.86-6.24-6.73s2.52-6.68,6.14-6.68c2.21,0,3.25.91,3.61,1.59v-7.31H299v16.51Zm-6.5-.47c1.77,0,3.15-1.35,3.15-3.67s-1.38-3.56-3.15-3.56-3.17,1.3-3.17,3.59S290.67,287.77,292.49,287.77Z"/><path d="M314.2,286.89a5.76,5.76,0,0,1-5.82,4.06,6.8,6.8,0,0,1-.31-13.57c4,0,6.32,2.52,6.32,6.63,0,0.49-.05,1-0.05,1.07h-9.15A3.12,3.12,0,0,0,308.4,288a2.83,2.83,0,0,0,2.91-2ZM311,282.7a2.57,2.57,0,0,0-2.86-2.52,2.77,2.77,0,0,0-2.86,2.52H311Z"/></svg>