<svg id="Layer_1" data-name="Layer 1" xmlns="http://www.w3.org/2000/svg" viewBox="0 0 351 485.28"><defs><style>.cls-1{fill:#85e8da;}.cls-2{fill:#f6f6f6;}.cls-3{fill:#231f20;}.cls-4{fill:#e51b24;}</style></defs><title>Slide-6-Flow-Chart</title><rect class="cls-1" x="61.95" y="220.29" width="205.87" height="82.24" rx="1" ry="1" transform="translate(329.77 522.83) rotate(-180)"/><path d="M266.82,304H63a2.5,2.5,0,0,1-2.5-2.5V221.29a2.5,2.5,0,0,1,2.5-2.5H266.82a2.5,2.5,0,0,1,2.5,2.5v80.24A2.5,2.5,0,0,1,266.82,304ZM63.45,301H266.32V221.79H63.45Z"/><rect class="cls-2" x="106.8" y="37.48" width="116.16" height="116.16" transform="translate(349.04 46.54) rotate(135)"/><path class="cls-3" d="M164.88,179.82,80.62,95.56,164.88,11.3l84.26,84.26Zm-80-84.26,80,80,80-80-80-80Z"/><polygon class="cls-3" points="72.23 95.73 0 95.73 0 0 3 0 3 92.73 72.23 92.73 72.23 95.73"/><polygon class="cls-3" points="70.04 86.75 83 94.23 70.04 101.71 70.04 86.75"/><rect class="cls-3" x="163.38" y="177.89" width="3" height="29.87"/><polygon class="cls-3" points="157.4 205.57 164.88 218.52 172.36 205.57 157.4 205.57"/><rect class="cls-4" x="163.38" y="303.27" width="3" height="6"/><path class="cls-4" d="M166.38,355.44h-3V343.9h3Zm0-23.08h-3V320.81h3Z"/><path class="cls-4" d="M164.88,374.48h-6v-3h4.5V367h3v6A1.5,1.5,0,0,1,164.88,374.48Z"/><path class="cls-4" d="M147.24,374.48H135.59v-3h11.65Zm-23.29,0H112.3v-3h11.65Zm-23.29,0H89v-3h11.64Zm-23.29,0H65.72v-3H77.37Zm-23.29,0H42.43v-3H54.08Zm-23.29,0H19.15v-3H30.79Z"/><path class="cls-4" d="M7.5,374.48h-6A1.5,1.5,0,0,1,0,373v-6H3v4.5H7.5Z"/><path class="cls-4" d="M3,354.75H0V342.52H3Zm0-24.46H0V318.06H3Zm0-24.46H0V293.61H3Zm0-24.46H0V269.15H3Zm0-24.46H0V244.69H3Zm0-24.46H0V220.24H3ZM3,208H0V195.78H3Zm0-24.46H0V171.32H3Zm0-24.46H0V146.87H3Z"/><path class="cls-4" d="M3,134.64H0v-6a1.5,1.5,0,0,1,1.5-1.5h6v3H3Z"/><path class="cls-4" d="M79.7,130.14h-12v-3h12Zm-24.07,0h-12v-3h12Zm-24.07,0h-12v-3h12Z"/><rect class="cls-4" x="91.74" y="127.14" width="6" height="3"/><polygon class="cls-4" points="95.55 136.12 108.5 128.64 95.55 121.16 95.55 136.12"/><path d="M117.87,245.89l-5.25-7.35h4.74c.51.81,2.43,3.57,2.94,4.38l2.91-4.38h4.53l-5.16,7.23,5.34,7.53h-4.68l-3.09-4.53c-.54.81-2.52,3.72-3,4.53h-4.5Z"/><path d="M142.77,242.83V237h3.36v5.85h5.7v3.27h-5.7V252h-3.36V246.1H137.1v-3.27Z"/><path d="M155.07,243.07v-3.21h14.55v3.21Zm0,6V245.8h14.55V249Z"/><path d="M184.41,253.3v-13h-4.68v-2.79c2.85,0,4.83-1.62,5.22-3.66h3.57V253.3Z"/><path d="M193.95,236.65a7.36,7.36,0,0,1,6.42-3.27,7.27,7.27,0,0,1,6.39,3.27,14.67,14.67,0,0,1,0,13.86,7.27,7.27,0,0,1-6.39,3.27,7.36,7.36,0,0,1-6.42-3.27,14.9,14.9,0,0,1,0-13.86Zm3.48,11.88a3.25,3.25,0,0,0,2.94,1.59,3.17,3.17,0,0,0,2.91-1.59,11.88,11.88,0,0,0,0-9.9,3.17,3.17,0,0,0-2.91-1.59,3.25,3.25,0,0,0-2.94,1.59,12.19,12.19,0,0,0,0,9.9Z"/><path d="M214.41,238.33a2.69,2.69,0,1,1,0,5.37,2.69,2.69,0,0,1,0-5.37Zm-.06,10.32c1.77,0,2.82,1.44,2.82,3.27,0,4.2-2.88,6-5,6.24v-1.83a3.49,3.49,0,0,0,2.7-3.09,1.31,1.31,0,0,1-.72.18,2.27,2.27,0,0,1-2.37-2.37A2.43,2.43,0,0,1,214.35,248.65Z"/><path d="M114.84,295.12l3.48-7.68-6.27-12.9h4.47l3.93,8.64,3.63-8.64h4.26l-9.27,20.58Z"/><path d="M143.19,278.83V273h3.36v5.85h5.7v3.27h-5.7V288h-3.36V282.1h-5.67v-3.27Z"/><path d="M155.49,279.07v-3.21H170v3.21Zm0,6V281.8H170V285Z"/><path d="M184.83,289.3v-13h-4.68v-2.79c2.85,0,4.83-1.62,5.22-3.66h3.57V289.3Z"/><path d="M194.37,272.65a7.36,7.36,0,0,1,6.42-3.27,7.27,7.27,0,0,1,6.39,3.27,14.67,14.67,0,0,1,0,13.86,7.27,7.27,0,0,1-6.39,3.27,7.36,7.36,0,0,1-6.42-3.27,14.9,14.9,0,0,1,0-13.86Zm3.48,11.88a3.25,3.25,0,0,0,2.94,1.59,3.17,3.17,0,0,0,2.91-1.59,11.88,11.88,0,0,0,0-9.9,3.17,3.17,0,0,0-2.91-1.59,3.25,3.25,0,0,0-2.94,1.59,12.19,12.19,0,0,0,0,9.9Z"/><path d="M214.83,274.33a2.69,2.69,0,1,1,0,5.37,2.69,2.69,0,0,1,0-5.37Zm-.06,10.32c1.77,0,2.82,1.44,2.82,3.27,0,4.2-2.88,6-5,6.24v-1.83a3.49,3.49,0,0,0,2.7-3.09,1.31,1.31,0,0,1-.72.18,2.27,2.27,0,0,1-2.37-2.37A2.43,2.43,0,0,1,214.77,284.65Z"/><path d="M132.18,92.55l-5.25-7.35h4.74c.51.81,2.43,3.57,2.94,4.38l2.91-4.38h4.53l-5.16,7.23,5.34,7.53h-4.68l-3.09-4.53c-.54.81-2.52,3.72-3,4.53h-4.5Z"/><path d="M163.8,92.61l-12.9,6.51V95.43l8.88-4.29-8.88-4.29V83.1l12.9,6.51Z"/><path d="M177.87,100v-13h-4.68V84.15c2.85,0,4.83-1.62,5.22-3.66H182V100Z"/><path d="M187.41,83.31A7.36,7.36,0,0,1,193.83,80a7.27,7.27,0,0,1,6.39,3.27A12.44,12.44,0,0,1,202,90.24a12.43,12.43,0,0,1-1.74,6.93,7.27,7.27,0,0,1-6.39,3.27,7.36,7.36,0,0,1-6.42-3.27,12.42,12.42,0,0,1-1.71-6.93A12.42,12.42,0,0,1,187.41,83.31Zm3.48,11.88a3.25,3.25,0,0,0,2.94,1.59,3.17,3.17,0,0,0,2.91-1.59,9.12,9.12,0,0,0,1.08-4.95,9.12,9.12,0,0,0-1.08-4.95,3.17,3.17,0,0,0-2.91-1.59,3.25,3.25,0,0,0-2.94,1.59,9.41,9.41,0,0,0-1.05,4.95A9.41,9.41,0,0,0,190.89,95.19Z"/><polygon class="cls-3" points="37.98 474.51 34.98 474.51 34.98 412.95 348 412.95 348 95.73 246.2 95.73 246.2 92.73 351 92.73 351 415.95 37.98 415.95 37.98 474.51"/><polygon class="cls-3" points="29 472.32 36.48 485.28 43.95 472.32 29 472.32"/><path d="M243.49,69.15l-5.8-9.06v9.06h-2.48V56.38h3.1l5.31,8.44V56.38h2.48V69.15Z"/><path d="M257.41,64.72a4.65,4.65,0,1,1-4.64-4.7A4.55,4.55,0,0,1,257.41,64.72Zm-2.39,0a2.26,2.26,0,1,0-2.25,2.52A2.27,2.27,0,0,0,255,64.72Z"/><path d="M110.93,163.38h2.92l2.86,5.06,2.86-5.06h2.79l-4.5,7.4v5.37h-2.48v-5.37Z"/><path d="M130,173.61a4,4,0,0,1-4,2.81,4.71,4.71,0,0,1-.22-9.4c2.74,0,4.37,1.75,4.37,4.59,0,.34,0,.7,0,.74h-6.34a2.16,2.16,0,0,0,2.23,2,2,2,0,0,0,2-1.35Zm-2.23-2.9a1.78,1.78,0,0,0-2-1.75,1.92,1.92,0,0,0-2,1.75Z"/><path d="M133.29,173.23a1.47,1.47,0,0,0,1.62,1.35c.79,0,1.17-.41,1.17-.88s-.27-.72-1-.86l-1.17-.27c-1.71-.38-2.48-1.4-2.48-2.65a3.09,3.09,0,0,1,3.31-2.9c2.52,0,3.37,1.6,3.48,2.56l-2,.45a1.35,1.35,0,0,0-1.46-1.19,1,1,0,0,0-1.13.88c0,.43.32.7.81.79l1.26.27c1.75.36,2.63,1.42,2.63,2.72s-1.12,2.92-3.44,2.92c-2.67,0-3.58-1.73-3.69-2.74Z"/></svg>